<mxfile host="65bd71144e">
    <diagram id="jht0lC981dywxOo3yBBq" name="Page-1">
        <mxGraphModel dx="894" dy="436" grid="1" gridSize="10" guides="1" tooltips="1" connect="1" arrows="1" fold="1" page="1" pageScale="1" pageWidth="850" pageHeight="1100" math="0" shadow="0">
            <root>
                <mxCell id="0"/>
                <mxCell id="1" parent="0"/>
                <mxCell id="13" value="" style="edgeStyle=none;html=1;fontSize=14;" edge="1" parent="1" source="2" target="7">
                    <mxGeometry relative="1" as="geometry"/>
                </mxCell>
                <mxCell id="2" value="&lt;font style=&quot;font-size: 14px;&quot;&gt;Document&lt;/font&gt;" style="rounded=1;whiteSpace=wrap;html=1;" vertex="1" parent="1">
                    <mxGeometry x="365" y="280" width="120" height="60" as="geometry"/>
                </mxCell>
                <mxCell id="3" value="&lt;font style=&quot;font-size: 14px;&quot;&gt;# DOM Tree :&lt;/font&gt;" style="text;html=1;align=center;verticalAlign=middle;resizable=0;points=[];autosize=1;strokeColor=none;fillColor=none;" vertex="1" parent="1">
                    <mxGeometry x="35" y="15" width="110" height="30" as="geometry"/>
                </mxCell>
                <mxCell id="4" value="" style="shape=image;verticalLabelPosition=bottom;labelBackgroundColor=default;verticalAlign=top;aspect=fixed;imageAspect=0;image=data:image/png,iVBORw0KGgoAAAANSUhEUgAAAZYAAADlCAYAAABwOdFNAAAAAXNSR0IArs4c6QAAAARnQU1BAACxjwv8YQUAAAAJcEhZcwAADsMAAA7DAcdvqGQAADCdSURBVHhe7d17TFzXvS/w773/WBaE8HDBtKYBbJNOHBOHGIUGPy51rWK5JsqF9KhyT2x0cauoSeT2WFHSPHSURxNFbmM1iaIecy5xWqv33ECj4Fqhcl2O7ZA6IsHETkyNYyC1TwjEPDJhZPmve9fae+3n7JnZAxuYge9HGjF775k9M8zM/u3fWmvW77/ddNNN/w9EREQB+e/qLxERUSBmGFiaUPxEKwoK1WLAsna+jTuf0C9ramvUWiIiSmWzn7EUPoU1T7yMLLWYjPDhbXjv6W3oG1AriIgo5SUZWMpQ29iAqmVqcV7loereVHkuRERk8N95v6wKDTtCQF87Wk+PqZWyKawW146ex7LtlciUqya70fvSk7iubatHgXY7uwiGmhswUvgy7gyNYyi3EsXZYp2xD/P+FtkkVjT2Aj7u6FRrlLJaNFYXYrirBR39ah0REc0rfxmLPICLoDIlDuBWUDFkoHh7Li4/LZut2jCSXYnCCrm+GUNyXXM3pnAJfdp2eRFBZVi7I1BaiaVdsqnL2Ie8/y3I9ttn09+BliN9yKxuRENVnlpJRETzKWFgyatqEFlBJvqOxMoKZAbyAMLa9WaMD4hQk++zo11kJ8M9+tWp7ja1jyRdPY3Wli5MherQ+L0ytZKIiOZLgsCSh9VFN6jraeDr5exzISKaZwkCyxhOv9GClq4phHY0ojYVEwLZ99NYjcy+drS0tOL0VbWeiIjmhb8+lpn0ZQz/AxGsRK7W7xIwNaDAu++HiIjmg7/AIpl9GTVJNjc1Y+joJRRsN37s6PcHlXJUmX6fUCmQWfmw64eSeaiqWYErMft+iIhoPnCuMCIiCpT/jIWIiMgHBhYiIgoUAwsREQWKgYWIiAIVN7Dcc8896hoREZE/zFiIiChQDCxERBQoBhYiIgpU+gaWipdx54NPYYlanFUzqIJJRLTYMGMhIqJApU9g0WYxrkVqTLAsSzSnynMhIkotcecKk8ON33zzTbU0j7xKEMumsOpx9F28BaHKDG3VVLezfPGS2lasU9ugVbE0CpJJNSh48GEUZ6tFd0lkuf/tK9WC5Ly/LIBWJys1H+FU/UREdimfscStYJldiVBeh17y+OglZFbWW/0gIjCsq/zcLInc270cIVufzJLaeqDVKJf8AoZQiVXGzMmyT2X7cgw1q+1aeWWnsdOtqV2nhohonqR0YCn7XqPICqbQFauAl8wyDjfr13t6MYLlWKqm5M8KrcTIUSvDuN7R4ainf73jAav2PjoxeTGCzDw9Q8n6TiXQ/YptewysuU9EFCWFA0sZSr+uriatBktzYasBIy/1KFBbNdpIL2u71WQ2PTeEKtnnQkQkpHBg6UdHSwva+zJR3dgwrVr2I0eNpi7j0qCykCYUN8ms5AVzW293RLtPUmTfj6pg2dLSIZ4xERGlfB/L9Poy9Katgu3xf3sSGVUd/SJ7WWXLWK6PRZC5ukb1x+hBKFO7bqMNKIjR90NEtIilfGDRmH0Z/of4Xu9o0Dvsbc1d1g8qmzEsMhSzqawpF1dtGcv1jle0zvx12v1qca25DSNqm64MtdWI3fdDRLSIpcdwYyIiShvpkbEQEVHaYGAhIqJAMbAQEVGgGFiIiChQKRtYSkpK1DUiIkonzFiIiChQDCxERBQoBhYiIgoUA8usaUKx49f+Pjkmx2Q55LmXh6p7ky+FkLVTvl+tKFCzZ/ujPiPaJdn7EqUuBpbpmlHNfVlk7G0UV6hFu+En8bGcGNOjBszMbMRjLW1oa7Nf9mOX2mrY+Ojrtu2v47HNasPmx/C6WPf6oxvVCmDXfu99RNuF/eY+nZf9u9VNUkVZJULoQ7d9/jct2E83yMd5r9GMIW0SVPeUQUTpjYHFB63Y2PeSnRRfHTTsVSnngHyu8WrDRN4/gPr6eu3SPliCOltgkEFlb9kFHFDbD7wv4udDantJDjLCEfEApdptZbBYmxeBvzmhD2GfuU9xj3CP+Rj7XlM3mTOyrHTs2bLLSgox/OFpjKllv8KH7bNnzxE5EWrSn0ui2cfAkoBZbOzP6hTWaKqSZYuzjYkq5cU6o5UlkfV14rKzSa3V6U0meklke72YNUb1yoT0M+BY+x87fRZToTpfB5xD+w6gJ1yCLVoWsgt3rwd6XnsWp/TNOPXcQW37WiOrGLuAC3lr9UCzey1w4jhGkY8VRlYzAzL7kdmQPWNyZjPOrMeeOUnOTCtGFrWsCg2N1cjs6/SePFRsL//6MAbMbEU1VWmzW6+0TWhqa7aK03Q58/fa9VlyZ0393ejLqkbjvVVgmTlKJQwsMelt7dVZfWi311oxmqqOXtIrWGpNGfJir1bZELPGi35m+wKGJp31Yuy1+uPJ2ikOVONt6n5iP7n1rgOVrGPT7vOAcwpXxKl5hsxCNq8QIWIUV06oTRp9e8mtxmH6Ck7252uBZtetwLmAs42M9XuxN++4mdmUbH4MeviQzXh1yDezrXaMituagWf3fuxdP4p2lQUdeD8fdS3GfRVb7ZzW0975SNkdIaCv21ZXR2WdWrPkJbPMtSMzidN0OdP3OlF5bRHpcfqNFnSFQ6hr9D/zN9FsY2DxJJtL6hAKd6HljeSbRWZPE3JLxQHOKMeMTox0XbLVjjH4P+AMjKngpzV1TWBAXzIZ2zcW5mt/T717Afm37sdanMMhbU2AZBPZPn2v8nEiWTnQGt42b8LN6MHB54xc6hDekoFHBbxdt5Zg8Mg+8/mceu44BrNuxiaVSWlNmQlr58iKpV/hyiep824nKq9t6P/zzAriEQWNgcVLWSlScoBO4TeR4WiSERfZJBdXIcrj9LmU5qkCZ4MT1oHcRm6PjNnCzYmTuJBXAnwkD+MDmDCOegGI9J80m+Fw4lncV6+ChQx6WRXYa2sK27veKMy2ESvEyyvZYW1ra6uDNW9DHlYX3aCux5ZXVY7Cz86mUH0dH+W1o9yA0B3MW2j+MbB4kYXFfDcnzTV7k4y6RA0QsDfjxW76kf0Wa8URWAscJ6549JfoB+3RYf1wrweYU3i20d7pnoGcuZh9x9bhb15UdiMNHnFtq78Pz2rNenr2Fr8KqR58hgdjpjPzJnZ5bYvZDyje6xajL5BoHjGwxJSgOWl4HFMezRL+dOLauDgbDTk73hMa7sTVSZGxuDrsnWRQ8dOMp/dblIgDtt7EdAjnBjNQsdvqm9j46B5UoAdvzfnILZfXzmFQZCx7XB32ulM42R8RGUuCYc9mFdLG6FFzXkOM7Yb/gYjIFHM9hwwnMs332md5bRlUovoBieZZylaQlJNQDg4OqqX5Jdvo6248G3U2KEfsrDNr5ctMQraHy1Fb+kggh4E2vGf2jUhyxJHVtDHV/YLWqevcp8HYtxS9f+O+knyuNeKgFJ2lyECyFxX2o9Rgu+OsX5Kjs+qMDERmCY36KDG5fsvYAdxn9nNI+j5zTvgfNmwOaVb7NXjv306OCrM3celZivG42n7N5jHB9tydZP9ZOSaPWGWl5cG5/Mv2OJmdIH+3ZDY7RjDUrGcOid8vyfu9du7TYO1bitq/HDBiZKhyQELJALMUSjkMLLS4ySHIO7Jxlmf8RIFhUxgtbldPo5VBhShQDCxERBQoBhYiIgoUAwsREQWKgYWIiALFwEJERIFiYCEiokAxsBARUaAYWFLU9ErdprG1G/Dmz7fj8QJgU812cX0D5qe4ZBYeb/ohfrVWLS56+v/jzaY12KTWJKbuU18krhfhVz//IX5fE2dimvuP4Yk/HsZytejPHmz74yCeOK4uv31erU8dckaHeEX3AmfUBoo75dPcYGBZcOKVwk1zBWvwe3GQ0g9Y0XbXi20qOKUN7TXNVxBNX8ufeQDr8S4ObinB0/Lyk0fUlhShisadjTdNUCqZUan1aAwsPkyvNPHMzEup2/k0OoEIvsSVEeDk1S/FP8BZG0bLYnYAf/9UrXDQz4rXjp/1WSqZ/AvjmeY/4J7mj3FSrUksjCsTQGRcvI/iPZWlFUauBlhfQSj8WhYmz/8nPlfLQUlU2tsuXkaSt2qFq2jcHDCKzjnmJAzANEpgc66wBLTZY8WZR5dr2g/35IByevOhHrUguSYYtCaK1CeRXNq1DeOhtxHSCqDYJh6U6axWCldyT2Yo7/tToLUDS5uMSQ2t28jmM31/TvZJKhNZ/syH2PNtq9liqLUEv3tVXpNND7/AsmMl+GjdIL6/Sq4L4/3nb8Pbx+R1Sb/N+hvVIj7Bn7ZsxRm1NG3yrH5DGD9qu6xlJXfjHdwjrht212/HineO4hmI2+0sxt8Pi+siQPknA9MGRy2agWN/wL+c06/LoPaz263/ibVN3u8mTJy5EXeI7ZEz7+DvKzfgjqwwPkj4HKIfU2e7r2wevHMCLx4BfryzHNqn7VP7a5dNTtvF46lFxzbJ+RiRM0fxo04/B3jXfqXwWbzoCC6u5x+1PT735wxfiuzjf+5UgeJ5/PPxf0Kxdh2Y/Nsv8dLjB9WSpH/OVp13r9c59+38DN7+20Fs+OKXeAMPmLexPuOSnKS0GoWfdcWZ3FPNII4+tHvOIB490anOORmpY0JRjXuCWdv3Xx5PqsfR2wqsMo4Ptolt7d/9qO+7vG+oF71jteYxy7yN43hjZz/2JHq90RhYYorzz9TejFxcdhz0bbSgstwxS63F+vAYb672oYBr9mPPxzDuawWi6PtagcsR6PzYehgPPpKPdzyDgRU0jC+6/JJ+H/+hmiHU9i+M5dnhFVhMMgAlHVj0g+i3LhkHXX055z0VPOTBfSvw1q/fgTaRsrZ8ozr4q4OrPKD33yTWF2lB51zZD/HdcZ8Hce055+Avxv7ttMeSzX6X9cd3vT7n/8L7dVjL+nOFLWD6pQXWlUOOwCEf2/drdJN9Kg2wDvhyeeuoCizuoKEHGWgHf2fAsdhOcFz71oLMLR+ZQUv7zMqTok/0z6l7uy7egTRx4Ik1G7r8rhaNxTrJU99tWXbcK+MwT1TVAV87PtyCq65jjOdjGPc1ApHXfY3AFVXbyRLrJNsLm8I8+SlNHKs+h/iAVK8UQeMVj6BiI95k480P910Ccr/pu31z5Kj1gUj2vomtwq33q6texBfSOEs80/sJ8LUivdP1/h+IoCPODmMElf/10lEcPeq+/F/863fUDebL2nLcgbP4N88DpDg431kkzvTPWgf9c+/grU+z8K1bjDNikWG8o4KcOGt/K8mDdmIyg1FBZ+Qy/h7OQo5WJboIa28SAccMsGE8895lZKws0jvZC4rwLcfrErc9E0ZpmXf/1HSYj5UUETi2rhJZQoxMduv/EJ/Ad/GGmYk8gmN/C6N4neycfwS/0/pUfon3v9RPcLT+lS1W1nz7Oue+P3/8bQzdeCtuFycHJpkdqc/p5yc+wuSN+a6KsTFqMcmZsEVQyexrj5vNxCsaF11GXKmoFyeMImh4BRWTPKFUJ5pabaYMLPU7uEdmR8a+k72vkkwJbAYWL4lKE8u2zKOXrLKxjk6vlVgqspHIqNdZiWWkz/YB6nnAowpkErJzgwksx3bipdZPUNygRtp4jNQZ6rUFjle34ml1prf8G+Jo9+UoYsXSf39wO7Zvd19+gH/9q7pBCgu6fyAp4SGcNLMvvb9DyzgKslAggsvdcjCDcdGyGyVflnMux89s2+3NeTP1WttRfABr/4GNoluVj+wb78IeY7SXuDiazOLag+Vfg/X51S7RGY6jb0Z+5uM211qlvWW/ScIi13GKxoUPv4AhVGKdKjVtH2CzJF980ybH4x8DJs9j0vyCdWLkpWm0Sthk5Neoa8lKXAKbgcWLn9LEMhiocrF94+LDYgaXS7g2qV2ZO4k+kMmQwUKNtPnTF+IL7nMY6Of/NaqueUvZjMWHgmX2A1sWVuSoq/NONpH9AffYL/Z+Dtnv4d7u1YQ4LapTX+7z8FkUbA0wuMiMQn0GzUsSzauyz8RxX1tG449sCosu7T12ulUcF7owFaqL2ZldVlKIry5fjNHKoQcD7bjR3I0McWJqBJfro1ZD3FxJdPLrJpvC/JbAZmCJKUFpYpvrY/axSP5KygajCcXbV2LqYqctsEy3FG604S+SOFN/9QMMiTPNe5/Zo1Y4pWzGIkejZRVjk+pRlQMBrE7rME5eCiPj9nJrOLBsOsu6jL9Mp2/By0gYI7JZK9mDstYsJjKWGEOvce5TDIiM5cfxfj+i9cPIjGOGQ7S11+DXQXz+hcgqtKYtQfbrNWgjQXQJPkfxHcSZ82GRsRzD7WpN8lT/Ssxm8H50xDrpTGaIsVbu2qanFyPZlVhVO90swr8ltT/Vmt3G7dlOglLrWv9KEiWw2Xnvg7szLrocrX0Ehc59G69RYV5pbPxSt0bnvVoteI/4ilEKN4GokTqOETV6p6ocFWaNoHFzd64GNCpMdTxHjaBSo6Dco7Z0ttFVCdjvL0dO/SV3O9b2xxoVZt+vfF7lmJDL+WoEl8gYSpPt2DY76SXb/o1RYTFHW+kd9PbRW86RX9H/N/toN+v+8f9X0Z330fv1P+JMsn9OxGfk+VFsuB94I8aoMMk5csvdwe8Ub8SZMSrM635S7NLe0eTB1l7SOlanvc41IkyI/l66b2M7rsTtXI/et2Tu3+z4N0QfryTnscd2m2mUwGZgSSszGPFFNE1aYMk9G2Az2kIUa4hxCvAx4itobAojojiKcLf8jY72Y0eKTTaRpWBQmSfMWNIKM5bkxGhCM0T9oDBA2m9O1I8aPSTXdDTH3M99Nv9PNPvmIWNhYCEiokAxsFBK+/bqIjy8Y4NaolT3v/+zB0d6LqglWqxSNrAQEVF6Yuc9EREFioGFiIgCxcBCRESBWjiBRZt51Jp6Rf6KdM5KdMrhfAFWXyMiSmcLJrCU3RGa+4ptREQUJX0CiysjcSpDaSrVl55GKU8iooUiPQKLPFDvCGGqy3tmzbyqchR+NuC5TVZU02qmuOof6L9it7ZFNZvJ5i1jW9R9VVObsd0xwZvQ3x1/yn0iogUs5QOLnDG0sToTfUda0OHZzlWGStkK9oHHxtJ6rUynrH/Q2x1BQbXVD5K1U5UB1WqqvICh3HqsMaesbkJxqFdtExetqJdtGnwRdNZVfo4+23Yn/1PuExEtNCkdWKzCMnEmd5PVHqeu4KLXdlv53+sfnseUWWmxCbmll2xlQDsx0nXJVja0GUP2EqGyVgKWq1KeItOpXomRo9HTTrslU8qTiGihSOHAIvtN1NWY8lB1WyGGP4xVlz6Gwm8iAysRsjV1uZuz7E1od3rUOkhO4lKeREQLRQoHFjkNdYIz/mWrsSJzGAPTGgomC9mopizjomb/lP0nIZnRmNvakqiQZ0mmlCcR0UKR8n0sWp3primEdjSi1nXSP+0hxsOduDopMpZ4v3Ox1ZHP2mnPWFylfwufwhp3572QbClPIqKFIuUDi6a/Ay1H+pBZbe8Il01lX+HKJ9MZYtyJkZf0Dnuruetts/P+ekeHVn96nVpfNNbtyFjCh0UGU6ru25SLy83dmFLbNGW1qEasmtlERAtb2s5uHL++NBERzZf0yFg8aE1kDCpERCknbQMLERGlJgYWIiIKFAMLEREFioGFiIgCxcBCRESBYmAhIqJAMbAQEVGg0jewBFwOWE46aU2bT0RE08WMhYiIApU+gSVuaeK5VoZaFvAiIvKUHoElTmlie4lgd1OWs6ZKKwq0Ql0GZ2niUKlardY79+Ve149uFvAiIvKU8oElbmni7EqE8jr0minN3UDlT83godVUye1Gr6qp0is2FzdZ5YWdpYm3oW9AbUAnJi9GbNUkhcIaLMuO4OqHejVKKd50/kREi1lKB5aEpYknReAwSghrNVYysOw2mVU0obAyAyNdeuEu6XrHKxiaXIncCrFQ+BSKHKWJnfRp829BthGkbrsFmQNi3bC+bDKn829EQ1WeWklEtLilcGDxU5rYTi/AZYngmjsQ+NaM8QEjSNUgezUw9FfvIGS4IVTJPhciIiGFA4uP0sQONViaK8LJqNFclYGljj6VlViara76EO67pDeHyWYwnMekV5Ay+35a0MJKkUREmpTvY/Hdl1FRj+LsSxjvkQsy4wAKqq3fuSyprUXBZDeG5fbhf4h8RjWLadtkjXv9uqmnDUOoxKqGWxCxNamZZFCJ1fdDRLSIpU8FSTnceEc2zhqZgfyBpKPW/CX0Pf0AwmpJkqPCrIDh2m6//0AbesdqsQqv4OMOq4NeBpx1lZ9H7Vc209U2lmKAWQoRUZS0LU08F7TAIkedxejkJyKiaCnfFDZvCp/CqsrEnfZEROTEwOImAsoa+aPJpkpEjjZEDzEmIqK42BRGRESBYsZCRESBStnAUlJSoq4REVE6YcZCRESBYmAhIqJAMbAQEVGgGFj80IYgW1PuG/R6L+46L7Nr+TMf4onjg/rlt8+rtakgC483/RBv1heJ60X41c9/iN/XuP9jKaxgDX4vnrP+/OdKmv/PiGJgYEkznz9+G57eUoKDf3NOMrPoaYFhA3arRSKaPwwsGjn3V/LVIMOHZZEw/ohSF8aVCSAy/qW4/iUmRNwbuZpGwW/kY/zo13/APW2X1Yq5kOh/xhLYlJ5S9geScrjx4OCgWppF2uSWIaCvHa2nx9RKId4kl7JprKkSme71knY/sbtE6+Lag21//AXW36gW8Qn+tGUrzqglSTaJ7fna23j6J4+oNYbn8c/H/wnFagmf/IfzNvcfwxMNq9QCMPm3X+Klxw+qJbXfb1vNMUOtJfjdq2phxmRzzwaY84KGz+LF5o9xUltItO0mnDs8ge/uLEeGY7vrfqYwPjh8FM+MyOuyyWk77jBelmPfwO76H+Lum/TrkTNH8aNO27u0dgPeLPsUL46X42e36ztw32ZTzXZzG3AZb/36HbymXdcfN+e9P+BcmfEY9ueVmKygWic/nkdiFLsjSkGLO7BoU98XYrjLNfW9FjhuwdVmlY1oy7m47A4MnuubUPxEPXB0G4a0KfyTncxSBZUvXAHBJVZguf23x4CfGEFIDzIwg4Nc3oarz9+Gt8XNomw9jAcfycc7riAWDD0AFLgP3Br9APytS8Y2FQgm3lEZhBE8jIO2voxjf8C/nNN2oDeF7czBX8yDumVTzQZsOv+OI8hYj2WRAea74x6BZWsR8Kl6LtoyrODhWtaCzMohFbisgGYEIy2IwXhdPsX6nBKlqEXbFBavln7WdyqB7lem2cTVjOHuCApCTWrZXwVK0/0/EJmKyFDiBJV4zphBRXoEH30CZH9jj1qWsrBqs33ZbRVuvV9dddiF/W1taHNfWh7DRnWLeDbVlKNUZAr/FhVUhLXl4uB7GX8xt4XxzJGziNx0k63PRJ7pG0HjMs59KmLJMiuziudkpxFUpDBOXgojI9dMBxOTGY4RCMQDD+BGrCjQF3eXFWHgmBXMTnaexUBWMTap7RoRlIxg9Vq/2E9OFjZpSz6xBDalmUUaWPKwuugGdT141z88j6nSdeIQLsSrQOlh+TfygS9HMe1uG9nUZYwaE5fvW61ewiP43fPvAt/+hdp+DLerLZpjO/FS6ycoblD3/+NhLFebgEPYV1+Pevel8VmcUreIpzRX/DcmxEFdLUcJT4gD9iwxRnypi9VsNVNZWJEjXttWa99vejTLDchgYjgnshVbM1yyWAKb0sEiDSxjOP1Gi7/KlNMx3Imrk3qFyiW33QJc7IyuQBnD5/81qq5Ng2zKalil9YvIkWPy8ieRsTjI4KG2HfxbPr7vDi6vbrXu+8Vd2GMGl5llLAPjHpmKXVaO84Ccn6P3pcxYEX61s1ykckdxj+ycF5cXzyR4LkkaOKbv17r470PxhSWwKc0s7lFhMZoYro9F9Hr32lITis2Oer86MXkxgoz8JmSv/hyXbVUpE3r1AwzdeBfufSZec1U8YVw1gonIXpwZi1OiIDb8hf0APLOM5eT5IURu2oBfrVUr7LTmpSJ81/wNRxYev7MIkTNno/pLYhoJY0TsY63X/gVztJXIXn4cWMaiN6uVbp3FYc4sgU1piKPCNHJYZzkmzZE3NSh48GEUZ8vrEQw1d2Bp0zqMq056vWSx+3zaXRpZ78QvGGibRgVK18guc1SYe7SYYhv5dftvbc1fX76L90XWseoLNfLLNSJMHhjft3Xku0eEeY1GmxGtg12N6pKiRn7ZmpGMznKN3FaOCdtoqrgd7Rpr9JV71NYHZ27EHblnXQMDnMyRX3Kfd064nqfzuTj3L5ivS++8l6PCzEEGSWEJbEpPDCxERBQo/kCSiIgCxcBCRESBYmAhIqJAMbAQEVGgGFiIiChQDCxERBQoBhYiIgoUAwsREQWKgWUa5C/v79xpzF5MnjY/htfb9mOXWjTs2i/nGHsdj21WK+ZB2ffsU/jIGRLmtrw00ULHwDJr5AHrbdz54FNqzjF/9AOv7YCsHaDb8PqjfqZ6jGcjHmtx78dr3QK3rArlXx/GWXtRNx+0kwnxfhZXqBVEFBMDiw9a7ZbvJTEFsqwY+cQ6XOuOqBVOcn/edTU2YkVeBJFwPlaoM/qNd90MhL33k44O7ZOTV96HZ0+oFbMg3vuVt2oF0NedxNxbct64t7EK5+E9YTHLBxO5MbAkIJtN6kJT6Ppz9KEoa6fISGRW4jiTFZlK9Th6n34Ak2qN29jps5gK1cU8+F3oH8XNd8ksYiM25V3AcfHQGXmlwO79zmxG8lo3AxsffV2fDl+7uPerZzgxp8zXnova9lCFc9p7lXnF3q9sHrNPze+6jeP+MW4jxHu/ZBCoDAFXPvHIVmQ1UPVe2rPMJbU/xdKubfi44x9qjVs/uvsyUd3YgKplahXRIsfAElMequ5tRHVWH9q9ZpctrUfR2At47+lt6JUVI6uNg1Ezhl56MkH9lX50tLSjL6sajfdWiUdyefccRss2YePmTcgZO2kVwHrtHAZRgrW2Odp33VoCDJ7DIbU8IyIw7F0/inY1Jf6B9/NRZwseGx+9WzwHY8r8A+hBBfYYzWjywL8jHz2/Udt/0wNHnnXiWdzntd6UgYqHtmBCu7/Yd7gEW8wmOhF4dovI/f4Bfd9H5OSkEfFY+2yvO8H7JeRVlaPws7MeteMzULxdlpjeJt7PNoxkV6JQnShc72gwS0zHMna6dfZq+xClIQYWT7J5ow6hcBda3jgNz9b4gTZxFqvXWdEqRmbnJtWXYhQb6wqHUGc2pZTKqrXCIZwbuxl378jBxLv2aieH8Nb7EZTcapyn78LaEnGAPeI/rGSs32s749+LCtts7zJIDR6xDtannjuOwaybsUk1y516bp+tCesUTvZH9ExK2LVDHvgPzqiJa/CI0UTm3DdEgL05K4ILxv9CC7AZyBExVefj/VJVQ4cHvUKOLI1glDxoxriI5Bn5NdqSbywfTGRiYPFSVoq5HSRUiHLXwejQR6MoyZvASXGgPTVsFeQ69e4FRErW6k1Au9eiZPB4UgfziHHWb2QdZjkT2b8DlOywNzXVifzIxtUctXd9MDUeEzpxBaMikOjNg4J83SK0nDOqgPl5v8oqEUIfur3iSsBYPpgWOwYWL/LsM15TVSDsTTctaDVHKY3iigwUr+1zVmfMW6E3SZ04iQthvTlMyzA+CqQRzDR4xAg6xsXIInZh/0O25ihxOSCyp7kxIMvlW9nWDmdm5ef9KispxFeXL8bIZgLA8sFEJgaWmLyaqoIig0qipptYTokD/SBKNr+OLXk9eMt37d5E9Oankh3xBwKMDqtQJ7KXPbaMZWAsggzZL6Qt6UEosHxm992oQA8O2ALevqjXHef9muYQY99YPpjIgYElgf4/t6BdjvrxPdxYH54qRxdp5YuzK7HONdIor6oGKy63o8U9cmnzCuSrq3HJPoYsse/+k1ZGE4BTz92nd9jbmruskV+qf8doKnsoBxdsGcup5w5qnfl7tfvJTvh22Ot/mqPNtIBToh4jfhAzvfaWbd/WZb9HoXmv90sOMb7hs4HpZRHa0HH5ftajQCwWbNffW2sUYBlqq4GuFqOsNRGxNHFaksNy5cF7dn8PkjLkMObNEzhgbxqU63YA7fX2kWFeZMd+OSaP8MBPNFeYsaShXfvrku60T2cbC6PzOG2YdXjCGoodkxzazaBCNJeYsaQROd1LnRymFe5xnr0vePIHlM6h0Yvvf0CUPhhYiIgoUGwKIyKiQDGwEBFRoBhYiIgoUAwsREQUKAYWIiIKFAMLzTF7zRX/1Sv1yprJ3cdJPa67hoxvrlo0+33NGTD/jIlD5/P5LqtCA4uhLSoMLPMhqmjV/NaAn0v6jzvbzTm/7nvO3y9R9MqT9WifpxHoGx/d45yvbF+wk39Olwy4qV5auuyOUJJVOyndMbD4kHRpYjkpYczb6xM0jjpmEV4kU7OIs345NX/QMzL7cwj75P96mj+qLM3LQCTgudnmhFFgbTYDYdyMpAylSU4AGrt0N6UL/kAyAVnqtlp8MbpsU6EvqW3FKryCy3kPI6RqUY0c3WarNKhmL0Yf2t2zF/uY40pO2GivdSKnstdm85X3vXUCPXkVqMiSBb4u4OYdFchw/ApdNvlYdVRk/RW/WYH2uHnHrYOQzKweysFx87k69x3163fttZmPjJ6oucz0+8N4PSb9l/U5J6z1Uc9FkWfoW8b8vybJ8f+U2ZJjn/I5rcW530xgizEjc9Sv+vXnd3O/9+OaMyJo7K/bel3nbjVuY2yX2/YA/aOoWC82iOfVjjrtNub7LTg/C9a+3Z8Rk+312Z+X1+cg/vMWz+2148h5yHi/B70/s9rMzoUY7vKe2VkGibobzzomXE38/ZHzu1Wj8LOu6IlaKS0wY4kpfqnbzMqHzdLE7x29hILtL8OacSTOFO6qvHBdrJl9xcHZXh5YluEt2WFrKiup0A5U7YMZqNghD/rttiqP8oBQh3yzZko7Rtfv9ZwFeDpkM5a1b3GxH3xlELKXJj4iDpgPqddoNv3pBymrmJjP2Y1nSM7aLJ9T7Pox4v3QAqj+PxvMqsDd2v9MBh35PPXpZKzqm9b7IQ/wdXlWE9mB92G9bkW+XhkM5Xb9fTO2iutlEzggyzWX1Gm3kc/RrBAq/m9346D+/zT2vVvvIzJek2wadBRvswXNeM2HiZ93vFLROi2Tj1suoAyVshXsg+iN8b8/CUp3U8pjYPGUXGli9PRiBMux1FXG0JzCvbEBVcvUStUk0z5oTB1vn/5dBIbNJeJA8ZZ1ZvjaPu1gZFZPFGfTRg0Wx+0kWcIXPThonpm6SxnPnFVzxWnjXTc7SxPLqe5VQTKzOUYetMWiVUws0czEc0WerRvP5RDOiSeZXyhfpWo+U5U2rQO4cWa/C3eLrGFQvD7jP66VDzBet0FkEUa2cOgjsXOjaJtg3XcQx93ZkNi2z7ZOqx6alQN1kj8D/p53zFLRgszk60JT8csFyMqeU1dw0Wt7wu/PbNZDotnGwOJlWqWJM6ICi+UGhO5wfjWMs0k9I3F2wJrFtJJVkoMMcbZtr1sSZPngQ/vEAdZWF8WeCck+iHj19BeuCCY8MgI7R5+SuzJoXDIDtd5LvZZNUBI/79hkv4m6GpPI+G8rxPCHfgvZxfv+RJfuptTGwOJlWqWJI7g2rK4q1lldS+y2Yi0jEV8r29mgfrZs0Du8fZP9A9pZte3i6qeYvlN4tlHt8zc9yBcB0R5cnPX09Ut0pceFJgM5Zj+FVIqcgALqrv0iONtHoskmM7Vt5mbyvGVTlVc2brNsNVZkDmPAdxeJ+/sTq3Q3pQMGlpj8p+JZO+tRMHkek7YvhtbpH6N/xmkX1ooveGRMVhZRTQ7r77baumVZ3iyPZhIvWmXJCuyZyfBTs5lmV/zywieuYFRdlWQTT8b6PTMaNm0GVK2fKbhz89mjN5uVbLZ+G7Px0S0osTVXztjYFZXdiOxld/T74SwJ7Vcwz3vsdCtauqYQ2tGIWtcXJJkhxtHfn5mU7qZUwMCSQMzSxKX1qmTt2wjldqP3pSdxXW2SI2Wq4f2lkJ2mVnORvOgd4kYbfFR5YK1D3G9fhOwT0Dvs7Y/ht/M+qrzwEfsZstGRbVz0521mJLKJR+uwt9/Gb+e8yIRe6wGM5715Au2OjnbrseUoJqPJzd/vN6zmJC1YldTpjxHQDwZlk2b7mNU8qA288N3UFd8h+f83nm/bXuT0R2cszvfM/rri/88Ce94yuz/Sh8xq+8mXbCr7Clc+iRMS4nx/YpbuprTB4cbTIIdLrsvrwHuHm9UaIjJ4DTG24/dn4WPGQkSB0prImG0sagwsREQUKDaFERFRoJixEBFRoBhYiIgoUAwsREQUKAYWIiIKFAMLEREFioHFj0SlVStexp0PPoUlalHXhGL5y+Ko9URECxsDiw8srUpE5B8Di0bWX4kxS6s271FypVV1zRiSRYzsc4j5Iifgi/VciIhSHwOL1sxVjcy+Ts+CRXlV5Sj8bCAqW5HzHRmT6N25faVaq3Ns29mk1uq0ba7mMee6MZz+0HvGWCKidLC4A4us170jhKmuWPUeYpRWrXgZ6yo/R5/MSFRpVbvrHQ3a+t7u6OoZ1z88j6nsW5BtK2q0JC8DUxc7rczGnDG2EQ0scEREaWbRBpbE9boFz9KqNSioXomRow8grNYkZfhJXB7IwLLbatSKJuSWXsJlo0yr4epptLZ0YSpUh0b3lP1ERClskQaWPKwuukFdjyXZ0qr+hfsuIXN1jd70VbEOBQO98YPU18vZ50JEaWORBha9OmSs6neapEurJqGnFyOqOSwrJLKfPo+6FGbfTztaWlo9+3+IiFLR4u5jidOXEXuIcSeujQMFIdUpX/gU1rg67xNrxvhABpYWNiE3txvDPWq1QQaVuH0/RESpa3EHFsnsy6ixNTfFL60aPtyGEaO0alMuLjd3Y0pt0/pgHtRHhK2rzLBKsLpGh4X/2o2M7fXIsHfaa/JQVbMCV+L1/RARpTDWY/GQqLQqERHFxozFA0urEhFNHwMLEREFioGFiIgCxcBCRESBStnAMl8d90RENDPMWIiIKFAMLEREFCgGFiIiCtTCCSyu8sFajRPXr92nTU7b8sTLyFKLREQU24IJLCwfTESUGtInsLgyEqfplg+eJbKAGGuoENEilR6Bxaz02OGZkcQqHyxl7VQlgsWluEKt1DShWK3XLq5ywbJKpLmtqRKZarVxP699mev6u9GXVY3Ge6vA+o9EtNikfGBJXOkxRvlgqbQeRWMvmOWDC7Yb/SRyBuJ6ZHSrbU+/gCFUYp3RJ6NNhb8cQ82q9LBj9mI55b1t2nxJFuvCJYyb09/r9V66wiHUxcyyiIgWppQOLGXfa0RdaApd8QpdeZYPVgba8LFR8lcW18JK5MqsoqIexdn2csCdGGkVwaN0nRZ4sr5TCXS/gpFhfaubnPLeuK0ki3VNdbdFVYHs/3ML2vsyUd3YwAqQRLRopHBgkf0m6mpMyZQPvoRrk+qqNDnuqoOShOFOXJ1UQSpWzXqHGxC6g3kLES0OKRxY+tHRkuCMP6nywSuxNDuCa0YWkp3r7FMpzLX1oyTSicmLEb05LE7NeivjauE0/ES0aKR8H4tWGyVGbfpkhhgvqa1FweR5TMrAoprFimpr9I2yz6Xaas66PhZB5uoaFXiaUOzovNdd7+jASGkt1lQvx9Bfo2vWy6BSndWH9hbvAQdERAtVygcWjVmb3t4RHr98sMYoCywu61afR+9LT6rmr2YMPd2GSOXDavvDKB63+mOud7yid+Zr22pxrblNBCI3vW59JlSwsiurRTW60PKGnyY6IqKFJWVLEyeSCuWD5VBmOerMHCBARERpkrF4mPfywRUvI5Sw056IaPFJ28Ayb4wfTmq/c3nAs9OeiGgxS9umMCIiSk3MWIiIKFBxM5alS5eqawvHL597Vvv7i0cf0/4SEVGwmLEQEVGgfGUs165d0/4uBC8e+LX292d7f679JSKiYDFjISKiQAUcWPJQda9t6hU5NNdd5yQw9noqrSgoVKuJiGheBRtYyioRQh+6k/jdovz1+hpzzq5kyGlZZL0Ur+lWiIhoviQZWMpQG6e2SFmJ3yns54J8riyyRUQ01/wHFq3mfDUy+zq9i26J7eVf957Cfkltq2qysrITY12oFMg0J4MUF1XFUW5fU/uUau56GVnGL96NKo8J9aObRbaIiOacv8Bi1pxvQetp73wk5hT22ZUI5XWY5YEzK+u1yovXOxq0dX0DwJRZIlhcDltT0GdW3oJrzS9gaHIlQtXj6JUlgm2VGxOJN+U+ERHNjoSBJadiR4Ka81KcKewnu9FrBAutDspyLPXb0T7QYZYHHukyprxPkjnlfiMaqvLUSiIimi0JAksOSr+Roa7HlldVjsLPzsauS58ibghVqmtERDRbEgSWCXxw5P8kaE7Kw+qiGzA8OI9T2Mdja8ZraelQK4mIaLb462OJ15w0jSHGds4ywAGTQSVhMx4REQXJX2CRrp5Ga0sXpkI1jlFWcojxV5cvTnuIsbMMcBKjvoxRYk/UowAZKG6S1+0/lCxDbTXQ1dKa8k10REQLyczmCpNDkHdk42xLR/RosBTFucKIiGaX/4zFi5bFpE9QISKi2TezwEJEROTCQl9ERBQoZixERBSouBkLERFRspixEBFRoBhYiIgoQMD/Bwf+ajxHKSRlAAAAAElFTkSuQmCC;" vertex="1" parent="1">
                    <mxGeometry x="40" y="45" width="406" height="229" as="geometry"/>
                </mxCell>
                <mxCell id="6" value="" style="edgeStyle=none;html=1;fontSize=14;" edge="1" parent="1" source="5" target="2">
                    <mxGeometry relative="1" as="geometry"/>
                </mxCell>
                <mxCell id="5" value="Root Node&lt;br&gt;" style="text;html=1;align=center;verticalAlign=middle;resizable=0;points=[];autosize=1;strokeColor=none;fillColor=none;fontSize=14;" vertex="1" parent="1">
                    <mxGeometry x="580" y="295" width="90" height="30" as="geometry"/>
                </mxCell>
                <mxCell id="23" value="" style="edgeStyle=none;html=1;fontSize=14;fontColor=#66FF66;strokeColor=#CCCC00;" edge="1" parent="1" source="7" target="22">
                    <mxGeometry relative="1" as="geometry"/>
                </mxCell>
                <mxCell id="7" value="HTML" style="rounded=1;whiteSpace=wrap;html=1;fontSize=14;" vertex="1" parent="1">
                    <mxGeometry x="365" y="383" width="120" height="60" as="geometry"/>
                </mxCell>
                <mxCell id="12" value="" style="edgeStyle=none;html=1;fontSize=14;" edge="1" parent="1" source="8" target="7">
                    <mxGeometry relative="1" as="geometry"/>
                </mxCell>
                <mxCell id="8" value="&lt;font color=&quot;#66ff66&quot;&gt;Root Element&lt;/font&gt;" style="text;html=1;align=center;verticalAlign=middle;resizable=0;points=[];autosize=1;strokeColor=none;fillColor=none;fontSize=14;" vertex="1" parent="1">
                    <mxGeometry x="570" y="398" width="110" height="30" as="geometry"/>
                </mxCell>
                <mxCell id="17" value="" style="edgeStyle=none;html=1;fontSize=14;entryX=0;entryY=0.5;entryDx=0;entryDy=0;" edge="1" parent="1" source="14" target="2">
                    <mxGeometry relative="1" as="geometry"/>
                </mxCell>
                <mxCell id="14" value="JS Object" style="text;html=1;align=center;verticalAlign=middle;resizable=0;points=[];autosize=1;strokeColor=none;fillColor=none;fontSize=14;" vertex="1" parent="1">
                    <mxGeometry x="250" y="295" width="80" height="30" as="geometry"/>
                </mxCell>
                <mxCell id="19" value="" style="edgeStyle=none;html=1;fontSize=14;" edge="1" parent="1" source="18" target="7">
                    <mxGeometry relative="1" as="geometry"/>
                </mxCell>
                <mxCell id="18" value="&lt;font color=&quot;#66ff66&quot;&gt;Child Node of Document Object&lt;/font&gt;" style="text;html=1;align=center;verticalAlign=middle;resizable=0;points=[];autosize=1;strokeColor=none;fillColor=none;fontSize=14;" vertex="1" parent="1">
                    <mxGeometry x="100" y="398" width="220" height="30" as="geometry"/>
                </mxCell>
                <mxCell id="25" value="" style="edgeStyle=none;html=1;strokeColor=#006EAF;fontSize=14;fontColor=#FFFFFF;fillColor=#1ba1e2;" edge="1" parent="1" source="22" target="24">
                    <mxGeometry relative="1" as="geometry"/>
                </mxCell>
                <mxCell id="28" value="" style="edgeStyle=none;html=1;strokeColor=#CCCC00;fontSize=14;fontColor=#FFFFFF;" edge="1" parent="1" source="22" target="27">
                    <mxGeometry relative="1" as="geometry"/>
                </mxCell>
                <mxCell id="22" value="&lt;font color=&quot;#ffffff&quot;&gt;head&lt;/font&gt;" style="ellipse;whiteSpace=wrap;html=1;fontSize=14;rounded=1;strokeColor=#CCCC00;" vertex="1" parent="1">
                    <mxGeometry x="209.5" y="503" width="67" height="47" as="geometry"/>
                </mxCell>
                <mxCell id="24" value="&lt;font color=&quot;#ffffff&quot;&gt;/n space&lt;/font&gt;" style="ellipse;whiteSpace=wrap;html=1;fontSize=14;rounded=1;strokeColor=#3399FF;" vertex="1" parent="1">
                    <mxGeometry x="64" y="600" width="67" height="47" as="geometry"/>
                </mxCell>
                <mxCell id="74" value="" style="edgeStyle=none;html=1;strokeColor=#FFFFFF;fontSize=14;fontColor=#FFFFFF;" edge="1" parent="1" source="26" target="22">
                    <mxGeometry relative="1" as="geometry"/>
                </mxCell>
                <mxCell id="26" value="&lt;font color=&quot;#66ff66&quot;&gt;Child Node of HTML&lt;/font&gt;" style="text;html=1;align=center;verticalAlign=middle;resizable=0;points=[];autosize=1;strokeColor=none;fillColor=none;fontSize=14;" vertex="1" parent="1">
                    <mxGeometry x="15" y="511.5" width="150" height="30" as="geometry"/>
                </mxCell>
                <mxCell id="40" value="" style="edgeStyle=none;html=1;strokeColor=#2D7600;fontSize=14;fontColor=#FFFFFF;fillColor=#60a917;" edge="1" parent="1" source="27" target="39">
                    <mxGeometry relative="1" as="geometry"/>
                </mxCell>
                <mxCell id="27" value="&lt;font color=&quot;#ffffff&quot;&gt;title&lt;/font&gt;" style="ellipse;whiteSpace=wrap;html=1;fontSize=14;rounded=1;strokeColor=#CCCC00;" vertex="1" parent="1">
                    <mxGeometry x="172.5" y="600" width="67" height="47" as="geometry"/>
                </mxCell>
                <mxCell id="30" value="" style="edgeStyle=none;html=1;strokeColor=#FFFFFF;fontSize=14;fontColor=#FFFFFF;" edge="1" parent="1" source="29" target="24">
                    <mxGeometry relative="1" as="geometry"/>
                </mxCell>
                <mxCell id="29" value="Text Node" style="text;html=1;align=center;verticalAlign=middle;resizable=0;points=[];autosize=1;strokeColor=none;fillColor=none;fontSize=14;fontColor=#FFFFFF;" vertex="1" parent="1">
                    <mxGeometry x="53" y="680" width="90" height="30" as="geometry"/>
                </mxCell>
                <mxCell id="39" value="DOM Tree" style="rounded=1;whiteSpace=wrap;html=1;fontSize=14;strokeColor=#2D7600;fillColor=#60a917;fontColor=#ffffff;" vertex="1" parent="1">
                    <mxGeometry x="146" y="720.5" width="120" height="60" as="geometry"/>
                </mxCell>
                <mxCell id="41" value="" style="edgeStyle=none;html=1;strokeColor=#006EAF;fontSize=14;fontColor=#FFFFFF;fillColor=#1ba1e2;exitX=1;exitY=1;exitDx=0;exitDy=0;" edge="1" parent="1" target="42" source="22">
                    <mxGeometry relative="1" as="geometry">
                        <mxPoint x="480.0629763429238" y="541.372978600561" as="sourcePoint"/>
                    </mxGeometry>
                </mxCell>
                <mxCell id="42" value="&lt;font color=&quot;#ffffff&quot;&gt;/n space&lt;/font&gt;" style="ellipse;whiteSpace=wrap;html=1;fontSize=14;rounded=1;strokeColor=#3399FF;" vertex="1" parent="1">
                    <mxGeometry x="258" y="600" width="67" height="47" as="geometry"/>
                </mxCell>
                <mxCell id="43" value="" style="edgeStyle=none;html=1;strokeColor=#CCCC00;fontSize=14;fontColor=#FFFFFF;exitX=0.993;exitY=0.702;exitDx=0;exitDy=0;exitPerimeter=0;" edge="1" parent="1" target="44" source="22">
                    <mxGeometry relative="1" as="geometry">
                        <mxPoint x="280" y="530" as="sourcePoint"/>
                    </mxGeometry>
                </mxCell>
                <mxCell id="44" value="&lt;font color=&quot;#ffffff&quot;&gt;Script&lt;/font&gt;" style="ellipse;whiteSpace=wrap;html=1;fontSize=14;rounded=1;strokeColor=#CCCC00;" vertex="1" parent="1">
                    <mxGeometry x="345" y="600" width="67" height="47" as="geometry"/>
                </mxCell>
                <mxCell id="45" value="" style="edgeStyle=none;html=1;strokeColor=#006EAF;fontSize=14;fontColor=#FFFFFF;fillColor=#1ba1e2;exitX=0.993;exitY=0.362;exitDx=0;exitDy=0;exitPerimeter=0;" edge="1" parent="1" target="46" source="22">
                    <mxGeometry relative="1" as="geometry">
                        <mxPoint x="433.76456374205577" y="543.0631807899176" as="sourcePoint"/>
                    </mxGeometry>
                </mxCell>
                <mxCell id="46" value="&lt;font color=&quot;#ffffff&quot;&gt;/n space&lt;/font&gt;" style="ellipse;whiteSpace=wrap;html=1;fontSize=14;rounded=1;strokeColor=#3399FF;" vertex="1" parent="1">
                    <mxGeometry x="425" y="600" width="67" height="47" as="geometry"/>
                </mxCell>
                <mxCell id="47" value="" style="edgeStyle=none;html=1;strokeColor=#006EAF;fontSize=14;fontColor=#FFFFFF;fillColor=#1ba1e2;exitX=0.433;exitY=1;exitDx=0;exitDy=0;exitPerimeter=0;" edge="1" parent="1" source="7">
                    <mxGeometry relative="1" as="geometry">
                        <mxPoint x="431" y="444.98" as="sourcePoint"/>
                        <mxPoint x="416.4304699071081" y="500.31116736227887" as="targetPoint"/>
                    </mxGeometry>
                </mxCell>
                <mxCell id="48" value="&lt;font color=&quot;#ffffff&quot;&gt;/n space&lt;/font&gt;" style="ellipse;whiteSpace=wrap;html=1;fontSize=14;rounded=1;strokeColor=#3399FF;" vertex="1" parent="1">
                    <mxGeometry x="386" y="500.94" width="67" height="47" as="geometry"/>
                </mxCell>
                <mxCell id="49" value="" style="edgeStyle=none;html=1;strokeColor=#CCCC00;fontSize=14;fontColor=#FFFFFF;exitX=0.992;exitY=0.9;exitDx=0;exitDy=0;exitPerimeter=0;" edge="1" parent="1" target="50" source="7">
                    <mxGeometry relative="1" as="geometry">
                        <mxPoint x="570.001" y="443.004" as="sourcePoint"/>
                    </mxGeometry>
                </mxCell>
                <mxCell id="50" value="&lt;font color=&quot;#ffffff&quot;&gt;body&lt;/font&gt;" style="ellipse;whiteSpace=wrap;html=1;fontSize=14;rounded=1;strokeColor=#CCCC00;" vertex="1" parent="1">
                    <mxGeometry x="638.97" y="507.01" width="67" height="47" as="geometry"/>
                </mxCell>
                <mxCell id="51" value="" style="edgeStyle=none;html=1;strokeColor=#CCCC00;fontSize=14;fontColor=#FFFFFF;startArrow=none;" edge="1" parent="1" target="52" source="71">
                    <mxGeometry relative="1" as="geometry">
                        <mxPoint x="674" y="560" as="sourcePoint"/>
                    </mxGeometry>
                </mxCell>
                <mxCell id="52" value="&lt;font color=&quot;#ffffff&quot;&gt;div&lt;/font&gt;" style="ellipse;whiteSpace=wrap;html=1;fontSize=14;rounded=1;strokeColor=#CCCC00;" vertex="1" parent="1">
                    <mxGeometry x="640.97" y="605.02" width="67" height="47" as="geometry"/>
                </mxCell>
                <mxCell id="53" value="" style="edgeStyle=none;html=1;strokeColor=#CCCC00;fontSize=14;fontColor=#FFFFFF;" edge="1" parent="1" target="54" source="52">
                    <mxGeometry relative="1" as="geometry">
                        <mxPoint x="663.47" y="665.02" as="sourcePoint"/>
                    </mxGeometry>
                </mxCell>
                <mxCell id="54" value="&lt;font color=&quot;#ffffff&quot;&gt;h1&lt;/font&gt;" style="ellipse;whiteSpace=wrap;html=1;fontSize=14;rounded=1;strokeColor=#CCCC00;" vertex="1" parent="1">
                    <mxGeometry x="578.97" y="730.5" width="67" height="47" as="geometry"/>
                </mxCell>
                <mxCell id="55" value="" style="edgeStyle=none;html=1;strokeColor=#006EAF;fontSize=14;fontColor=#FFFFFF;fillColor=#1ba1e2;exitX=1;exitY=1;exitDx=0;exitDy=0;" edge="1" parent="1" target="56" source="50">
                    <mxGeometry relative="1" as="geometry">
                        <mxPoint x="748.7645637420558" y="561.0831807899176" as="sourcePoint"/>
                    </mxGeometry>
                </mxCell>
                <mxCell id="56" value="&lt;font color=&quot;#ffffff&quot;&gt;/n space&lt;/font&gt;" style="ellipse;whiteSpace=wrap;html=1;fontSize=14;rounded=1;strokeColor=#3399FF;" vertex="1" parent="1">
                    <mxGeometry x="738" y="604.02" width="67" height="47" as="geometry"/>
                </mxCell>
                <mxCell id="57" value="" style="edgeStyle=none;html=1;strokeColor=#006EAF;fontSize=14;fontColor=#FFFFFF;fillColor=#1ba1e2;" edge="1" parent="1" target="58" source="50">
                    <mxGeometry relative="1" as="geometry">
                        <mxPoint x="548.7645637420558" y="548.0831807899176" as="sourcePoint"/>
                    </mxGeometry>
                </mxCell>
                <mxCell id="58" value="&lt;font color=&quot;#ffffff&quot;&gt;/n space&lt;/font&gt;" style="ellipse;whiteSpace=wrap;html=1;fontSize=14;rounded=1;strokeColor=#3399FF;" vertex="1" parent="1">
                    <mxGeometry x="540" y="605.02" width="67" height="47" as="geometry"/>
                </mxCell>
                <mxCell id="59" value="" style="edgeStyle=none;html=1;strokeColor=#006EAF;fontSize=14;fontColor=#FFFFFF;fillColor=#1ba1e2;exitX=0.657;exitY=1.021;exitDx=0;exitDy=0;exitPerimeter=0;" edge="1" parent="1" target="60" source="52">
                    <mxGeometry relative="1" as="geometry">
                        <mxPoint x="758.7645637420558" y="676.5631807899176" as="sourcePoint"/>
                    </mxGeometry>
                </mxCell>
                <mxCell id="60" value="&lt;font color=&quot;#ffffff&quot;&gt;/n space&lt;/font&gt;" style="ellipse;whiteSpace=wrap;html=1;fontSize=14;rounded=1;strokeColor=#3399FF;" vertex="1" parent="1">
                    <mxGeometry x="665" y="729.5" width="67" height="47" as="geometry"/>
                </mxCell>
                <mxCell id="61" value="" style="edgeStyle=none;html=1;strokeColor=#006EAF;fontSize=14;fontColor=#FFFFFF;fillColor=#1ba1e2;exitX=0;exitY=1;exitDx=0;exitDy=0;" edge="1" parent="1" target="62" source="52">
                    <mxGeometry relative="1" as="geometry">
                        <mxPoint x="548.7645637420558" y="676.5631807899176" as="sourcePoint"/>
                    </mxGeometry>
                </mxCell>
                <mxCell id="62" value="&lt;font color=&quot;#ffffff&quot;&gt;/n space&lt;/font&gt;" style="ellipse;whiteSpace=wrap;html=1;fontSize=14;rounded=1;strokeColor=#3399FF;" vertex="1" parent="1">
                    <mxGeometry x="486" y="727.5" width="67" height="47" as="geometry"/>
                </mxCell>
                <mxCell id="63" value="" style="edgeStyle=none;html=1;strokeColor=#2D7600;fontSize=14;fontColor=#FFFFFF;fillColor=#60a917;" edge="1" parent="1">
                    <mxGeometry relative="1" as="geometry">
                        <mxPoint x="612.47" y="780.5" as="sourcePoint"/>
                        <mxPoint x="612.47" y="854" as="targetPoint"/>
                    </mxGeometry>
                </mxCell>
                <mxCell id="64" value="My Heading" style="rounded=1;whiteSpace=wrap;html=1;fontSize=14;strokeColor=#2D7600;fillColor=#60a917;fontColor=#ffffff;" vertex="1" parent="1">
                    <mxGeometry x="549.47" y="854" width="120" height="60" as="geometry"/>
                </mxCell>
                <mxCell id="65" value="" style="edgeStyle=none;html=1;strokeColor=#CCCC00;fontSize=14;fontColor=#FFFFFF;exitX=1;exitY=1;exitDx=0;exitDy=0;" edge="1" parent="1" target="66" source="52">
                    <mxGeometry relative="1" as="geometry">
                        <mxPoint x="834.7011838374185" y="653.7655612949175" as="sourcePoint"/>
                    </mxGeometry>
                </mxCell>
                <mxCell id="66" value="&lt;font color=&quot;#ffffff&quot;&gt;p&lt;/font&gt;" style="ellipse;whiteSpace=wrap;html=1;fontSize=14;rounded=1;strokeColor=#CCCC00;" vertex="1" parent="1">
                    <mxGeometry x="750" y="733.5" width="67" height="47" as="geometry"/>
                </mxCell>
                <mxCell id="67" value="" style="edgeStyle=none;html=1;strokeColor=#2D7600;fontSize=14;fontColor=#FFFFFF;fillColor=#60a917;" edge="1" parent="1">
                    <mxGeometry relative="1" as="geometry">
                        <mxPoint x="786.5" y="780.5" as="sourcePoint"/>
                        <mxPoint x="786.5" y="854" as="targetPoint"/>
                    </mxGeometry>
                </mxCell>
                <mxCell id="68" value="Some Useful Info" style="rounded=1;whiteSpace=wrap;html=1;fontSize=14;strokeColor=#2D7600;fillColor=#60a917;fontColor=#ffffff;" vertex="1" parent="1">
                    <mxGeometry x="723.5" y="854" width="120" height="60" as="geometry"/>
                </mxCell>
                <mxCell id="75" value="" style="edgeStyle=none;html=1;strokeColor=#FFFFFF;fontSize=14;fontColor=#FFFFFF;entryX=0;entryY=0.5;entryDx=0;entryDy=0;" edge="1" parent="1" source="69" target="50">
                    <mxGeometry relative="1" as="geometry"/>
                </mxCell>
                <mxCell id="76" value="" style="edgeStyle=none;html=1;strokeColor=#FFFFFF;fontSize=14;fontColor=#FFFFFF;" edge="1" parent="1" source="69" target="48">
                    <mxGeometry relative="1" as="geometry"/>
                </mxCell>
                <mxCell id="69" value="&lt;font color=&quot;#66ff66&quot;&gt;Child Node of HTML&lt;/font&gt;" style="text;html=1;align=center;verticalAlign=middle;resizable=0;points=[];autosize=1;strokeColor=none;fillColor=none;fontSize=14;" vertex="1" parent="1">
                    <mxGeometry x="470" y="512.4399999999998" width="150" height="30" as="geometry"/>
                </mxCell>
                <mxCell id="70" value="&lt;font color=&quot;#66ff66&quot;&gt;Child Node of head&lt;/font&gt;" style="text;html=1;align=center;verticalAlign=middle;resizable=0;points=[];autosize=1;strokeColor=none;fillColor=none;fontSize=14;" vertex="1" parent="1">
                    <mxGeometry x="180" y="570" width="140" height="30" as="geometry"/>
                </mxCell>
                <mxCell id="72" value="" style="edgeStyle=none;html=1;strokeColor=#CCCC00;fontSize=14;fontColor=#FFFFFF;endArrow=none;" edge="1" parent="1" target="71">
                    <mxGeometry relative="1" as="geometry">
                        <mxPoint x="674" y="560" as="sourcePoint"/>
                        <mxPoint x="674.47" y="605.02" as="targetPoint"/>
                    </mxGeometry>
                </mxCell>
                <mxCell id="71" value="&lt;font color=&quot;#66ff66&quot;&gt;Child Node of body&lt;/font&gt;" style="text;html=1;align=center;verticalAlign=middle;resizable=0;points=[];autosize=1;strokeColor=none;fillColor=none;fontSize=14;" vertex="1" parent="1">
                    <mxGeometry x="598" y="570" width="140" height="30" as="geometry"/>
                </mxCell>
                <mxCell id="73" value="&lt;font color=&quot;#66ff66&quot;&gt;Child Node of div&lt;/font&gt;" style="text;html=1;align=center;verticalAlign=middle;resizable=0;points=[];autosize=1;strokeColor=none;fillColor=none;fontSize=14;" vertex="1" parent="1">
                    <mxGeometry x="607.47" y="690.5" width="130" height="30" as="geometry"/>
                </mxCell>
            </root>
        </mxGraphModel>
    </diagram>
</mxfile>